HIERARCHY
ROOT hip
{
  OFFSET 0 0 0
  CHANNELS 6 Xposition Yposition Zposition Zrotation Yrotation Xrotation
  JOINT abdomen
  {
    OFFSET 0 20.6881 -0.73152
    CHANNELS 3 Zrotation Xrotation Yrotation
    JOINT chest
    {
      OFFSET 0 11.7043 -0.48768
      CHANNELS 3 Zrotation Xrotation Yrotation
      JOINT neck
      {
        OFFSET 0 22.1894 -2.19456
        CHANNELS 3 Zrotation Xrotation Yrotation
        JOINT head
        {
          OFFSET -0.24384 7.07133 1.2192
          CHANNELS 3 Zrotation Xrotation Yrotation
          JOINT leftEye
          {
            OFFSET 4.14528 8.04674 8.04672
            CHANNELS 3 Zrotation Xrotation Yrotation
            End Site
            {
              OFFSET 1 0 0
            }
          }
          JOINT rightEye
          {
            OFFSET -3.6576 8.04674 8.04672
            CHANNELS 3 Zrotation Xrotation Yrotation
            End Site
            {
              OFFSET 1 0 0
            }
          }
        }
      }
      JOINT rCollar
      {
        OFFSET -2.68224 19.2634 -4.8768
        CHANNELS 3 Zrotation Xrotation Yrotation
        JOINT rShldr
        {
          OFFSET -8.77824 -1.95073 1.46304
          CHANNELS 3 Zrotation Xrotation Yrotation
          JOINT rForeArm
          {
            OFFSET -28.1742 -1.7115 0.48768
            CHANNELS 3 Zrotation Xrotation Yrotation
            JOINT rHand
            {
              OFFSET -22.5879 0.773209 7.07136
              CHANNELS 3 Zrotation Xrotation Yrotation
              JOINT rThumb1
              {
                OFFSET -1.2192 -0.487915 3.41376
                CHANNELS 3 Zrotation Xrotation Yrotation
                JOINT rThumb2
                {
                  OFFSET -3.37035 -0.52449 3.41376
                  CHANNELS 3 Zrotation Xrotation Yrotation
                  End Site
                  {
                    OFFSET -1.78271 -1.18214 1.43049
                  }
                }
              }
              JOINT rIndex1
              {
                OFFSET -7.75947 0.938293 5.60832
                CHANNELS 3 Zrotation Xrotation Yrotation
                JOINT rIndex2
                {
                  OFFSET -2.54057 -0.884171 1.56538
                  CHANNELS 3 Zrotation Xrotation Yrotation
                  End Site
                  {
                    OFFSET -1.62519 -0.234802 1.16502
                  }
                }
              }
              JOINT rMid1
              {
                OFFSET -8.24714 1.18213 3.41376
                CHANNELS 3 Zrotation Xrotation Yrotation
                JOINT rMid2
                {
                  OFFSET -3.10165 -0.590103 1.0647
                  CHANNELS 3 Zrotation Xrotation Yrotation
                  End Site
                  {
                    OFFSET -2.48547 -0.328903 0.83742
                  }
                }
              }
              JOINT rRing1
              {
                OFFSET -8.82822 0.546677 1.51678
                CHANNELS 3 Zrotation Xrotation Yrotation
                JOINT rRing2
                {
                  OFFSET -2.60934 -0.819778 -0.0198488
                  CHANNELS 3 Zrotation Xrotation Yrotation
                  End Site
                  {
                    OFFSET -2.33842 -0.294052 0.168128
                  }
                }
              }
              JOINT rPinky1
              {
                OFFSET -8.27202 -0.0477905 -0.4584
                CHANNELS 3 Zrotation Xrotation Yrotation
                JOINT rPinky2
                {
                  OFFSET -1.82734 -0.647385 -0.700984
                  CHANNELS 3 Zrotation Xrotation Yrotation
                  End Site
                  {
                    OFFSET -1.69225 -0.51767 -0.607171
                  }
                }
              }
            }
          }
        }
      }
      JOINT lCollar
      {
        OFFSET 2.68224 19.2634 -4.8768
        CHANNELS 3 Zrotation Xrotation Yrotation
        JOINT lShldr
        {
          OFFSET 8.77824 -1.95073 1.46304
          CHANNELS 3 Zrotation Xrotation Yrotation
          JOINT lForeArm
          {
            OFFSET 28.1742 -1.7115 0.48768
            CHANNELS 3 Zrotation Xrotation Yrotation
            JOINT lHand
            {
              OFFSET 22.5879 0.773209 7.07136
              CHANNELS 3 Zrotation Xrotation Yrotation
              JOINT lThumb1
              {
                OFFSET 1.2192 -0.487915 3.41376
                CHANNELS 3 Zrotation Xrotation Yrotation
                JOINT lThumb2
                {
                  OFFSET 3.37035 -0.52449 3.41376
                  CHANNELS 3 Zrotation Xrotation Yrotation
                  End Site
                  {
                    OFFSET 1.78271 -1.18214 1.43049
                  }
                }
              }
              JOINT lIndex1
              {
                OFFSET 7.75947 0.938293 5.60832
                CHANNELS 3 Zrotation Xrotation Yrotation
                JOINT lIndex2
                {
                  OFFSET 2.54057 -0.884171 1.56538
                  CHANNELS 3 Zrotation Xrotation Yrotation
                  End Site
                  {
                    OFFSET 1.62519 -0.234802 1.16502
                  }
                }
              }
              JOINT lMid1
              {
                OFFSET 8.24714 1.18213 3.41376
                CHANNELS 3 Zrotation Xrotation Yrotation
                JOINT lMid2
                {
                  OFFSET 3.10165 -0.590103 1.0647
                  CHANNELS 3 Zrotation Xrotation Yrotation
                  End Site
                  {
                    OFFSET 2.48547 -0.328903 0.83742
                  }
                }
              }
              JOINT lRing1
              {
                OFFSET 8.82822 0.546677 1.51678
                CHANNELS 3 Zrotation Xrotation Yrotation
                JOINT lRing2
                {
                  OFFSET 2.60934 -0.819778 -0.0198488
                  CHANNELS 3 Zrotation Xrotation Yrotation
                  End Site
                  {
                    OFFSET 2.33842 -0.294052 0.168128
                  }
                }
              }
              JOINT lPinky1
              {
                OFFSET 8.27202 -0.0477905 -0.4584
                CHANNELS 3 Zrotation Xrotation Yrotation
                JOINT lPinky2
                {
                  OFFSET 1.82734 -0.647385 -0.700984
                  CHANNELS 3 Zrotation Xrotation Yrotation
                  End Site
                  {
                    OFFSET 1.69225 -0.51767 -0.607171
                  }
                }
              }
            }
          }
        }
      }
    }
  }
  JOINT rButtock
  {
    OFFSET -8.77824 4.35084 1.2192
    CHANNELS 3 Zrotation Xrotation Yrotation
    JOINT rThigh
    {
      OFFSET 0 -1.70687 -2.19456
      CHANNELS 3 Zrotation Xrotation Yrotation
      JOINT rShin
      {
        OFFSET 0 -36.8199 0.73152
        CHANNELS 3 Zrotation Xrotation Yrotation
        JOINT rFoot
        {
          OFFSET 0.73152 -45.1104 -5.12064
          CHANNELS 3 Zrotation Xrotation Yrotation
          End Site
          {
            OFFSET -1.1221 -3.69964 12.103
          }
        }
      }
    }
  }
  JOINT lButtock
  {
    OFFSET 8.77824 4.35084 1.2192
    CHANNELS 3 Zrotation Xrotation Yrotation
    JOINT lThigh
    {
      OFFSET 0 -1.70687 -2.19456
      CHANNELS 3 Zrotation Xrotation Yrotation
      JOINT lShin
      {
        OFFSET 0 -36.8199 0.73152
        CHANNELS 3 Zrotation Xrotation Yrotation
        JOINT lFoot
        {
          OFFSET -0.73152 -45.1104 -5.12064
          CHANNELS 3 Zrotation Xrotation Yrotation
          End Site
          {
            OFFSET 1.1221 -3.69964 12.103
          }
        }
      }
    }
  }
}
MOTION
Frames:	4
Frame Time:	0.03333
-0.09990790858864784 61.447906494140625 0.189986452460289 -5.6825713941571 5.844588177024857 3.3236170076787483 -2.338754528894862 14.864726813353633 3.653574481858779 2.7846711128219606 -9.698674814800407 1.0626648434543846 -4.969526538677625 15.380447076824616 -3.4887613768561363 8.744876463248561 -25.121821672995004 -5.129379005352135 0.06291185858878252 0.059677817377634376 0.016264708126210208 -0.01931876318055794 -0.01078246746107005 0.004360408774392008 0.04271753052367374 -0.004989026301871189 -0.05221617588483263 48.76449074914288 29.44553973838276 15.519757322683489 -23.853563119603063 -29.83382574741423 66.78677815730026 -4.8502402730311145 -11.68140786764247 -5.321454170096648 -0.0006403302346886954 -0.01898952671822217 0.046415484319747236 0.014257913170695836 -0.006467442092061605 -0.05561742999862047 0.007868057758737345 -0.03449394941244533 0.006597749294820755 7.649492559070583 5.4516815450198735 0.45173483788289176 -0.008108821926980295 0.047676374593128616 -0.015028630649423017 2.892789378845266 1.0076931331365948 0.10242617046395913 0.0060749730190503256 -0.009321180504657557 0.015516802412093812 10.142237544784791 0.7398959299323812 0.017770151188389777 0.03669652533721577 -0.022778894325404087 0.022892619643127443 2.22221314552105 -0.7117040039680361 -0.23217445830971797 0.015059126376850066 0.04906002150858511 -0.041827224703511835 -57.55794949418409 32.37020966550929 -25.38498544662101 22.872817964228226 -27.678001186852057 -62.82704428787707 5.619474533491345 -14.155076988778479 4.248422913751183 -0.007257769684226127 0.0010514222453588378 0.0014417035234015978 0.035280808549171955 -0.07301429534061318 -0.02832041889810584 0.01953668890376366 0.05207269522151608 0.011709612280046392 -7.7044943649094035 5.41146709873413 -0.39797519265808834 -0.002438137409856544 -0.038946485699353176 -0.02318376979671246 -2.890282272533048 0.9627371481846883 -0.058834475778122924 0.004104463443501647 0.030110782234295433 -0.03330138771119053 -10.206729044701698 0.7763655115622526 -0.05110774423826666 -0.026048353802658453 0.018426116152975455 0.003943793915447675 -2.178485420680982 -0.7784067776287344 0.21416597087189176 -0.06159096403632553 -0.010652160258310901 0.017752301983097827 -32.12770379902799 -36.10058578260346 -28.51993811527202 -5.7215854346962125 62.22634281075279 6.652772018113908 -4.5398559865782255 -10.200773119745445 -10.216457795400734 -0.029882024257952895 0.02919153482154692 -0.009468990067164864 37.530612243845276 -34.29170238847938 31.433831711435566 5.680627778451408 63.477660787455804 -6.703629179787 5.005402961066764 -10.167766230581359 13.80046210480788
-0.4074525088071823 62.76183724403381 0.4627608694136143 -6.632791580357505 5.505818905041863 2.4940551013743804 -2.5670132610977525 14.62097272980151 3.445268866655611 2.957156441253231 -9.526998863785783 1.0560256861377206 -5.17707378943951 15.541610512932944 -4.012256316593298 8.79785824064035 -25.103977803788347 -5.763044256071367 0.04533511381169518 0.04955451653232345 -0.03718504394543036 0.007451202775955004 0.036603944257450366 -0.03903106265118497 -0.009207541898320149 -0.0691821856902658 -0.04533817539062979 50.81311036803982 29.591036428082372 15.518340058430711 -23.92721304942331 -29.128793130718005 65.95926658840736 -4.616274277446443 -10.811159805112805 -5.239487631188264 0.022484022252329944 -0.04608526068163299 0.009532462801678382 0.025448004186998132 0.010170685282677894 -0.041655776283173934 0.044333370520377606 0.00018601593317706602 0.020341797452178914 7.870549070237107 5.5389414805350174 0.5067548931334006 0.03910144561614784 0.06158488089909599 -0.05425739526056813 2.959536121848746 0.9576100239955359 0.05073017618342512 0.02336746453278878 0.008002206942904627 -0.08793196209644993 10.354168069446532 0.8157249569021271 0.014174483477201188 0.07544845736692937 0.008141158603832074 -0.07866727739479043 2.2861928081370286 -0.7950554704523463 -0.257238691242726 0.07647351935096018 -0.020557908906386348 0.034958722441123545 -59.13125624873985 32.486350202156196 -26.602746703931754 22.900538286974722 -27.017494573355144 -61.76350870202521 5.485353096967566 -12.622198977693673 4.187019513112768 0.062108991196188686 -0.054142696107279516 0.026168482422728696 0.06812985631040781 -0.023255726906835604 0.02883545785020711 0.08059046923403826 0.03016251558117299 0.02005226146439384 -7.810270089490806 5.441944256584374 -0.3608936420868395 0.01119075802696343 -0.013569985055228615 0.00029105677209245745 -2.9607772952869844 1.0289425986964449 -0.14740911598678874 -0.001370520145645371 0.0037681299877314095 0.043662357795276746 -10.373753636891543 0.8067544105618145 -0.06904040590413514 -0.029193762637155105 0.026924258862646475 0.07843052863072751 -2.1872908151815977 -0.747167520077506 0.2492973690329697 -0.02626805377422279 0.02514816955460515 0.02231905717561827 -32.574862623610386 -35.67788928053346 -27.35942579603703 -4.384876432989697 61.98716324639728 5.6727594005275535 -4.420179119488554 -10.127500557876841 -10.312273396624965 -0.06318047712223443 0.07084772465133075 0.011606625833967293 37.98211165364521 -33.66073634314277 30.365135917665768 5.051662124767968 63.01188969738512 -6.299914627194117 4.9862178134618445 -10.00542544061485 14.070944426129554
-1.466906350106001 58.458513021469116 1.7754976637661457 -16.721802314714033 -28.71669708223987 20.98245041330589 12.388648342987903 9.918778514577715 1.7400541904756883 1.3236305768281162 -7.995721678287699 -0.14592058831497554 -0.36843144952703616 12.004997471081932 6.777833208703664 3.4714291315069943 -22.778277900831494 14.831294744913713 -0.39776321666997994 0.3204038538001808 -0.3708807660355733 -0.295290208717396 -0.07384683136741427 -0.11042831070579764 0.03314438007166618 0.21695044689743556 -0.3315010435716004 105.48670512667339 47.092180402567784 -54.81768442936415 -26.50569483846775 -43.98977187776459 90.8616718494103 -9.679348794543856 -54.17628185497576 -16.318189361185055 0.48178670973559584 0.3552826950445269 0.008672979544167481 0.4928554581724246 -0.5303941778508147 0.009173531024708923 0.04398983334946712 -0.6460284267254843 0.060683989619741883 7.603519409540874 5.268340911563336 -0.14528762187798577 0.20055014884403002 -0.4333378834360211 -0.2669956965133686 3.0862132925074452 0.6378075470074335 -0.1442631868839764 0.4391368207630677 -0.601389725404866 -0.33883479911034287 10.36100338125842 1.0416972299195033 -0.07086537375342436 -0.13429576643017252 0.1803695011675811 -0.06968926053507313 2.6611825732885994 -1.2128688141526045 -0.2697347891335288 0.14476377838515753 -0.2369658893733348 0.032237745830519714 -13.00449064195481 10.792057473551573 -88.18712686478422 20.497752869045108 -23.9334336442099 -52.25031194300473 5.489032434496088 2.9824887591111624 -1.2042451667169345 0.08922521572710954 0.04776900903374691 0.2749205569000081 0.029199805753744982 -0.6609205869936393 0.45596325858765857 0.32978095647866784 -0.17766397252388913 0.29366323631275776 -7.7473512406302945 5.404168614719149 -0.03099529173181208 -0.2979988856514085 0.2159358970014242 0.379201563950662 -2.6882459172143056 1.096344826416835 0.07006752228100226 0.11332292353170789 -0.1792735759709114 0.2100590795095836 -9.985682778818928 0.7461784766691764 -0.36855914204800366 -0.11639243989318071 0.27146584188173034 -0.012536918943264187 -1.91594362115627 -0.8247531329635617 0.7027959965473115 -0.13768332681508727 0.3098045207862317 -0.08524945866078032 -8.624574633849834 3.211968601071604 -4.069544955143603 2.9453767128124864 40.80261778083447 -1.0929423249931107 -10.018753701006483 -16.81186518910982 -28.437538713124987 -0.056004829790607134 0.2031834669135476 -0.4194692376871631 75.72503008255657 -54.737149668860525 64.21883876523974 11.879019754482925 73.82605307818544 -12.28620489694782 0.3583571873055318 0.117085824155856 -1.1526234507436244
-2.032935433089733 61.296164989471436 3.555226046591997 -29.56968184164233 -27.37103541007876 4.733075208008716 14.579364924925086 6.441215019422402 -1.3500527367454873 4.028453256436337 -7.2408346570659035 -1.1016012973133944 0.05923102695638034 11.673179197239897 8.445592087970589 0.8372770318587206 -22.76022571085515 15.919680266513367 -0.45313636068406665 -0.08517662109658448 0.11368369625810207 -0.6185726670876198 0.13102053064059271 -0.0665409835547336 -0.43554582212650705 -0.46567658800021006 -0.8345912734110247 101.73109146059602 48.82385875340863 -51.98136299915173 -24.742329532519925 -43.654993570691005 89.80796490577409 -10.48516085244362 -62.56505189169372 -17.323598329652807 0.4487889986382064 0.5414910474571168 -0.09771084531677769 -0.02561118167513797 -0.09965574168293882 -0.047266403160369175 -0.2453393277698002 -0.7355277037930407 0.246049934247746 8.46195039103277 5.158766748029761 0.5862101102221887 0.6417545425740546 -0.24886215791679295 0.19218148624389836 3.3217882245284778 0.6731907016724499 -0.23376685288168297 0.20109885849430534 0.48961410652443044 -0.1544203318502333 10.853604308162558 0.8920484255347586 -0.2714748598658689 -0.29292093348819487 0.37445935827383686 0.03634078187120653 2.18280210023643 -1.1509763079365933 0.5386795174791575 0.4717802157972627 0.07671572426223118 0.3033447092961335 4.757504660235736 15.076850290859426 -92.48599328687688 25.27349626879889 -27.39269393993687 -60.32847912721636 1.1325624380993564 -15.993751960514864 4.251659996530945 0.14057009559562259 0.34200939633137073 -0.11891017835533699 0.21119638604767005 -0.4606523968962839 -0.12413047059363658 -0.16064636944381724 -0.5599912017934783 0.18187000835086828 -7.536113126395664 4.792770207580981 0.11006775142281501 -0.2630323725257629 -0.3766499280067069 -0.16492631005205005 -3.042666567680383 0.4226015197518486 -0.4497923961159636 0.3674881897304868 -0.5902691102190274 -1.0376381765618117 -10.051215882584263 0.48387125145377197 -0.5192274588880785 0.06709621656927481 0.8157969406926767 -0.0933325072958144 -1.8077017713976697 -1.0234748188224383 1.013567415987923 0.20842706450434723 0.1651236118056135 0.1557239374863537 -5.107513862271631 5.383681889190519 -4.960739500310404 3.8055372262682767 34.35979595940982 -3.0100840040184833 -10.46316508199524 -15.75291607528563 -28.81764044798349 0.23126849774933925 -0.35044489339974805 -0.19584735015706467 77.69883180928521 -53.06251022777846 66.8685833329895 11.689023528567034 75.40367651229664 -11.892603293194789 -0.2626879015399268 -4.923402698099353 -4.4406961539816265
